HIERARCHY
ROOT Pelvis
{
	OFFSET 0.000000 0.000000 0.000000
	CHANNELS 6 Xposition Yposition Zposition Xrotation Yrotation Zrotation
	JOINT LeftUpLeg_virtual
	{
		OFFSET 0.000000 0.000000 0.000000
		CHANNELS 3 Xrotation Yrotation Zrotation
		JOINT LeftUpLeg
		{
			OFFSET 18.735201 -5.666702 -4.541200
			CHANNELS 3 Xrotation Yrotation Zrotation
			JOINT LeftLeg
			{
				OFFSET -0.021200 -31.938179 0.493100
				CHANNELS 3 Xrotation Yrotation Zrotation
				JOINT LeftFoot
				{
					OFFSET 0.021200 -31.938179 -4.336299
					CHANNELS 3 Xrotation Yrotation Zrotation
					JOINT LeftToeBase
					{
						OFFSET 0.943001 -26.722000 15.023500
						CHANNELS 3 Xrotation Yrotation Zrotation
						End Site
						{
							OFFSET 0 0 0
						}
					}
				}
			}
		}
	}
	JOINT RightUpLeg_virtual
	{
		OFFSET 0.000000 0.000000 0.000000
		CHANNELS 3 Xrotation Yrotation Zrotation
		JOINT RightUpLeg
		{
			OFFSET -18.735201 -5.666702 -4.541200
			CHANNELS 3 Xrotation Yrotation Zrotation
			JOINT RightLeg
			{
				OFFSET 0.018946 -31.938133 0.493100
				CHANNELS 3 Xrotation Yrotation Zrotation
				JOINT RightFoot
				{
					OFFSET -0.018946 -31.938126 -4.336299
					CHANNELS 3 Xrotation Yrotation Zrotation
					JOINT RightToeBase
					{
						OFFSET -0.943001 -26.722004 15.023500
						CHANNELS 3 Xrotation Yrotation Zrotation
						End Site
						{
							OFFSET 0 0 0
						}
					}
				}
			}
		}
	}
	JOINT Hips_virtual
	{
		OFFSET 0.000000 0.000000 0.000000
		CHANNELS 3 Xrotation Yrotation Zrotation
		JOINT Hips
		{
			OFFSET -0.000000 -0.000000 -0.000000
			CHANNELS 3 Xrotation Yrotation Zrotation
			JOINT Spine
			{
				OFFSET 0.000000 10.199997 -0.299500
				CHANNELS 3 Xrotation Yrotation Zrotation
				JOINT Spine1
				{
					OFFSET 0.000000 11.900002 -1.516600
					CHANNELS 3 Xrotation Yrotation Zrotation
					JOINT Spine2
					{
						OFFSET 0.000000 13.600006 -2.842500
						CHANNELS 3 Xrotation Yrotation Zrotation
						JOINT Neck_virtual
						{
							OFFSET 0.000000 0.000000 0.000000
							CHANNELS 3 Xrotation Yrotation Zrotation
							JOINT Neck
							{
								OFFSET 0.000000 9.624100 -2.890100
								CHANNELS 3 Xrotation Yrotation Zrotation
								JOINT Head
								{
									OFFSET 0.000000 14.068802 -1.351900
									CHANNELS 3 Xrotation Yrotation Zrotation
									End Site
									{
										OFFSET 0 0 0
									}
								}
							}
						}
						JOINT LeftShoulder_virtual
						{
							OFFSET 0.000000 0.000000 0.000000
							CHANNELS 3 Xrotation Yrotation Zrotation
							JOINT LeftShoulder
							{
								OFFSET 15.263000 10.923401 -0.547700
								CHANNELS 3 Xrotation Yrotation Zrotation
								JOINT LeftArm
								{
									OFFSET 25.438599 -2.830597 -13.032500
									CHANNELS 3 Xrotation Yrotation Zrotation
									JOINT LeftForeArm
									{
										OFFSET 29.960503 0.000000 0.000000
										CHANNELS 3 Xrotation Yrotation Zrotation
										JOINT LeftHand
										{
											OFFSET 27.849251 0.000000 0.000000
											CHANNELS 3 Xrotation Yrotation Zrotation
											End Site
											{
												OFFSET 0 0 0
											}
										}
									}
								}
							}
						}
						JOINT RightShoulder_virtual
						{
							OFFSET 0.000000 0.000000 0.000000
							CHANNELS 3 Xrotation Yrotation Zrotation
							JOINT RightShoulder
							{
								OFFSET -15.263000 10.923401 -0.547700
								CHANNELS 3 Xrotation Yrotation Zrotation
								JOINT RightArm
								{
									OFFSET -25.438599 -2.830597 -13.032500
									CHANNELS 3 Xrotation Yrotation Zrotation
									JOINT RightForeArm
									{
										OFFSET -29.960503 0.000000 0.000000
										CHANNELS 3 Xrotation Yrotation Zrotation
										JOINT RightHand
										{
											OFFSET -27.849251 0.000000 0.000000
											CHANNELS 3 Xrotation Yrotation Zrotation
											End Site
											{
												OFFSET 0 0 0
											}
										}
									}
								}
							}
						}
					}
				}
			}
		}
	}
}
MOTION
Frames: 11
Frame Time: 0.03333333
8.810596 89.241302 111.681999 0.000000 0.000000 0.000000 23.884787 24.454147 -7.406218 -47.077817 7.395932 11.982944 48.787242 8.854936 -5.472686 -2.494357 29.063442 -4.456555 0.000000 0.000000 0.000000 23.884787 24.454147 -7.406218 -55.321725 -3.669464 -5.652376 39.492700 -6.924865 -4.933082 -4.612256 -6.674929 5.950223 0.000000 0.000000 0.000000 23.884787 24.454147 -7.406218 0.000000 0.000001 0.000000 11.223219 -0.881946 2.107155 6.689007 -2.739664 0.561831 0.000000 0.000000 0.000000 6.767272 -2.647714 0.806089 -2.835732 0.311525 1.299949 0.000000 0.000000 0.000000 6.767272 -2.647714 0.806089 1.518830 -7.209067 -6.123051 -29.320902 -21.015993 -35.448463 0.000000 -29.544953 -0.000005 0.000000 0.000000 0.000000 6.767272 -2.647714 0.806089 2.382972 6.831230 2.707432 -16.474830 -9.604024 53.071588 -0.000021 62.536577 0.000019 0.000000 0.000000 0.000000 
9.112226 90.304253 113.218895 0.000000 0.000000 0.000000 24.086865 25.292240 -7.698223 -47.364176 7.528404 10.950701 45.562478 8.928008 -5.509050 -1.633839 29.744320 -4.834122 0.000000 0.000000 0.000000 24.086865 25.292240 -7.698223 -51.790210 -4.083733 -5.381699 36.204565 -6.864438 -4.975556 -4.874742 -7.598994 5.828360 0.000000 0.000000 0.000000 24.086865 25.292240 -7.698223 -0.000001 0.000000 0.000000 10.989374 -0.415217 2.056119 6.739196 -2.514405 0.541700 0.000000 0.000000 0.000000 6.813275 -2.447948 0.778873 -2.619711 0.175844 1.136554 0.000000 0.000000 0.000000 6.813275 -2.447948 0.778873 1.571529 -7.049210 -6.199187 -27.840553 -21.494300 -35.479489 0.000007 -28.581681 0.000009 0.000000 0.000000 0.000000 6.813275 -2.447948 0.778873 2.412594 6.644255 2.840667 -17.278017 -10.440147 53.740072 -0.000003 64.466904 0.000006 0.000000 0.000000 0.000000 
9.402966 91.144699 114.749634 0.000000 0.000000 0.000000 24.252390 26.167811 -8.012369 -47.440752 7.476674 10.430754 42.350588 9.514505 -5.643238 0.338381 30.180297 -6.662041 0.000000 0.000000 0.000000 24.252390 26.167811 -8.012369 -48.564134 -4.632521 -5.103518 33.446501 -6.720466 -5.008410 -5.348137 -8.507685 5.638042 0.000000 0.000000 0.000000 24.252390 26.167811 -8.012369 0.000002 0.000000 0.000000 10.740809 0.070019 2.049087 6.787112 -2.287294 0.523223 0.000000 0.000000 0.000000 6.856948 -2.249065 0.744094 -2.462725 0.058088 0.968937 0.000000 0.000000 0.000000 6.856948 -2.249065 0.744094 1.618577 -6.835511 -6.264189 -26.441479 -21.915698 -35.489629 -0.000002 -27.829500 -0.000024 0.000000 0.000000 0.000000 6.856948 -2.249065 0.744094 2.446338 6.435830 2.980739 -17.981417 -11.167561 54.420598 0.000015 66.639519 -0.000028 0.000000 0.000000 0.000000 
9.722466 91.752518 116.137260 0.000000 0.000000 0.000000 24.352556 27.074341 -8.385301 -47.807219 7.319652 10.301999 39.055893 9.243402 -5.728110 3.370507 30.209947 -9.451175 0.000000 0.000000 0.000000 24.352556 27.074341 -8.385301 -45.714033 -5.282235 -4.841771 31.296586 -6.475315 -5.027153 -5.972587 -9.430721 5.475160 0.000000 0.000000 0.000000 24.352556 27.074341 -8.385301 0.000000 0.000001 0.000000 10.478408 0.575915 2.064541 6.832000 -2.056071 0.504971 0.000000 0.000000 0.000000 6.898573 -2.042587 0.728341 -2.368463 -0.084401 0.755929 0.000000 0.000000 0.000000 6.898573 -2.042587 0.728341 1.646197 -6.617215 -6.320240 -25.016642 -22.020561 -35.430227 -0.000002 -27.294805 0.000005 0.000000 0.000000 0.000000 6.898573 -2.042587 0.728341 2.483084 6.243167 3.110970 -18.599625 -11.797023 55.140428 -0.000045 68.895333 0.000031 0.000000 0.000000 0.000000 
10.071406 92.092972 117.469620 0.000000 0.000000 0.000000 24.381716 28.045500 -8.829152 -48.278653 7.139302 10.391271 36.372871 8.997535 -5.777632 6.449123 30.203281 -12.179921 0.000000 0.000000 0.000000 24.381716 28.045500 -8.829152 -43.323197 -6.070342 -4.600706 30.094514 -6.243756 -5.012755 -7.011432 -10.276890 5.332408 0.000000 0.000000 0.000000 24.381716 28.045500 -8.829152 0.000002 0.000000 0.000001 10.201133 1.143434 2.114346 6.872408 -1.748173 0.478846 0.000000 0.000000 0.000000 6.935700 -1.762648 0.687620 -2.291428 -0.248561 0.582541 0.000000 0.000000 0.000000 6.935700 -1.762648 0.687620 1.650702 -6.391018 -6.371706 -23.539752 -22.127412 -35.245443 0.000004 -27.532733 0.000010 0.000000 0.000000 0.000000 6.935700 -1.762648 0.687620 2.521230 6.103414 3.214547 -19.050579 -12.399770 55.928642 0.000031 71.237432 -0.000016 0.000000 0.000000 0.000000 
10.318895 92.265656 118.744278 0.000000 0.000000 0.000000 24.369442 29.034185 -9.278096 -48.763965 6.993654 10.553978 34.673670 8.742450 -5.886111 7.517207 30.248695 -14.675949 0.000000 0.000000 0.000000 24.369442 29.034185 -9.278096 -41.264103 -6.683846 -4.200633 29.494376 -5.917016 -4.954818 -8.260590 -11.428609 5.069873 0.000000 0.000000 0.000000 24.369442 29.034185 -9.278096 0.000000 0.000001 0.000000 9.912702 1.670207 2.199059 6.908630 -1.480094 0.454689 0.000000 0.000000 0.000000 6.968646 -1.523521 0.640997 -2.293882 -0.376422 0.375336 0.000000 0.000000 0.000000 6.968646 -1.523521 0.640997 1.637108 -6.153078 -6.388577 -22.030966 -21.702410 -34.916904 -0.000003 -29.175355 -0.000006 0.000000 0.000000 0.000000 6.968646 -1.523521 0.640997 2.560405 6.053433 3.268359 -19.362785 -12.513666 56.730643 0.000076 73.390321 -0.000075 0.000000 0.000000 0.000000 
10.496566 92.281784 120.129395 0.000000 0.000000 0.000000 24.352083 30.039117 -9.733097 -49.995462 6.999892 10.348516 33.925437 8.688362 -6.027975 6.750839 30.301786 -13.878728 0.000000 0.000000 0.000000 24.352083 30.039117 -9.733097 -39.422448 -7.272669 -3.679856 29.514084 -5.577290 -4.840147 -9.928382 -12.664287 4.664612 0.000000 0.000000 0.000000 24.352083 30.039117 -9.733097 0.000000 -0.000002 0.000001 9.614897 2.114218 2.322812 6.938819 -1.200941 0.394682 0.000000 0.000000 0.000000 6.995880 -1.243774 0.556804 -2.337988 -0.518399 0.147254 0.000000 0.000000 0.000000 6.995880 -1.243774 0.556804 1.600666 -5.900227 -6.378134 -20.631024 -20.820196 -34.468437 -0.000008 -31.483081 -0.000010 0.000000 0.000000 0.000000 6.995880 -1.243774 0.556804 2.569329 6.276833 3.284422 -19.444157 -12.478116 57.433059 0.000021 75.730160 0.000007 0.000000 0.000000 0.000000 
10.680939 91.918175 121.424324 0.000000 0.000000 0.000000 24.318562 31.023655 -10.244420 -51.405711 6.937503 10.366122 34.462734 8.576972 -6.135266 6.244137 30.343874 -14.329337 0.000000 0.000000 0.000000 24.318562 31.023655 -10.244420 -38.469319 -8.103707 -3.252536 31.152008 -5.116697 -4.737187 -12.362057 -13.787067 4.222481 0.000000 0.000000 0.000000 24.318562 31.023655 -10.244420 0.000001 0.000002 -0.000000 9.298029 2.627648 2.590203 6.962395 -0.911138 0.276979 0.000000 0.000000 0.000000 7.017161 -0.977862 0.420678 -2.401390 -0.700454 -0.070054 0.000000 0.000000 0.000000 7.017161 -0.977862 0.420678 1.532091 -5.629587 -6.367322 -19.307350 -19.703682 -33.769750 -0.000007 -34.763143 0.000006 0.000000 0.000000 0.000000 7.017161 -0.977862 0.420678 2.590658 6.667836 3.159103 -19.586177 -12.408366 58.225614 -0.000046 77.550528 0.000055 0.000000 0.000000 0.000000 
10.828593 91.329239 122.681030 0.000000 0.000000 0.000000 24.256461 31.990181 -10.770711 -53.357161 6.859381 10.412403 35.439905 8.479950 -6.155466 7.018848 30.309361 -14.444363 0.000000 0.000000 0.000000 24.256461 31.990181 -10.770711 -37.898688 -9.088974 -2.825449 33.574362 -4.636845 -4.662025 -15.212225 -14.789146 3.721130 0.000000 0.000000 0.000000 24.256461 31.990181 -10.770711 0.000001 0.000001 -0.000000 8.959656 3.180408 3.003663 6.979438 -0.616621 0.084972 0.000000 0.000000 0.000000 7.032314 -0.730680 0.218836 -2.439767 -0.889860 -0.245728 0.000000 0.000000 0.000000 7.032314 -0.730680 0.218836 1.483845 -5.195684 -6.244717 -18.327593 -18.394219 -33.141239 0.000004 -37.452058 0.000001 0.000000 0.000000 0.000000 7.032314 -0.730680 0.218836 2.615249 7.096793 3.014254 -19.595944 -12.189670 58.969217 0.000008 79.094574 0.000016 0.000000 0.000000 0.000000 
10.995255 90.450012 123.999344 0.000000 0.000000 0.000000 24.194816 32.934592 -11.303480 -55.438859 6.770008 10.516578 36.609097 8.325569 -6.132482 8.695161 30.227590 -14.872028 0.000000 0.000000 0.000000 24.194816 32.934592 -11.303480 -37.700120 -10.297789 -2.473971 36.937803 -4.130198 -4.619044 -18.678597 -15.613056 3.173443 0.000000 0.000000 0.000000 24.194816 32.934592 -11.303480 0.000000 0.000002 -0.000001 8.603928 3.748319 3.469832 6.990241 -0.324731 -0.212619 0.000000 0.000000 0.000000 7.041290 -0.511271 -0.075989 -2.489185 -1.088482 -0.399166 0.000000 0.000000 0.000000 7.041290 -0.511271 -0.075989 1.311478 -4.551988 -5.827183 -17.482142 -16.920533 -32.587386 0.000008 -40.299110 0.000005 0.000000 0.000000 0.000000 7.041290 -0.511271 -0.075989 2.653467 7.742626 2.776396 -19.608812 -12.107205 59.827574 0.000059 80.643354 -0.000055 0.000000 0.000000 0.000000 
11.213554 89.475655 125.270309 0.000000 0.000000 0.000000 24.111719 33.844817 -11.859640 -57.643880 6.816024 10.269303 37.844272 8.180919 -6.116902 10.014101 30.158680 -13.702909 0.000000 0.000000 0.000000 24.111719 33.844817 -11.859640 -37.424410 -11.751436 -2.246083 40.238092 -3.831275 -4.594718 -22.123367 -15.936821 2.797616 0.000000 0.000000 0.000000 24.111719 33.844817 -11.859640 0.000000 0.000000 -0.000001 8.239882 4.303039 3.888714 6.995794 -0.036533 -0.580344 0.000000 0.000000 0.000000 7.044671 -0.308793 -0.427658 -2.518094 -1.281575 -0.519456 0.000000 0.000000 0.000000 7.044671 -0.308793 -0.427658 1.121503 -3.625874 -4.936485 -17.082170 -15.665075 -32.510748 -0.000003 -42.806114 -0.000001 0.000000 0.000000 0.000000 7.044671 -0.308793 -0.427658 2.650933 8.620938 2.214275 -19.495515 -12.310843 61.064432 -0.000029 82.024425 0.000018 0.000000 0.000000 0.000000 
